<?xml version="1.0" encoding="UTF-8"?>
<svg version="1.1" xmlns="http://www.w3.org/2000/svg" width="634" height="393">
<path d="M0 0 C4.01532319 2.14941767 6.82433301 4.14170349 9.31640625 8.0234375 C9.31640625 8.6834375 9.31640625 9.3434375 9.31640625 10.0234375 C10.04085937 9.96542969 10.7653125 9.90742188 11.51171875 9.84765625 C20.39145522 9.43326855 20.39145522 9.43326855 24.00390625 12.5234375 C24.76703125 13.3484375 25.53015625 14.1734375 26.31640625 15.0234375 C26.64640625 14.0334375 26.97640625 13.0434375 27.31640625 12.0234375 C31.75353197 9.06535369 36.1125612 9.24096153 41.31640625 10.0234375 C43.67929506 11.46938438 44.66128359 12.7405097 46.31640625 15.0234375 C46.93515625 14.3840625 47.55390625 13.7446875 48.19140625 13.0859375 C51.23657237 10.13033509 52.81379856 9.90197168 56.94140625 9.9609375 C58.16730469 9.97447266 58.16730469 9.97447266 59.41796875 9.98828125 C60.04445313 9.99988281 60.6709375 10.01148438 61.31640625 10.0234375 C61.3421875 9.39695313 61.36796875 8.77046875 61.39453125 8.125 C61.47960937 6.89910156 61.47960937 6.89910156 61.56640625 5.6484375 C61.6128125 4.83632812 61.65921875 4.02421875 61.70703125 3.1875 C62.31640625 1.0234375 62.31640625 1.0234375 64.05078125 -0.24609375 C66.58036453 -1.06166629 68.65982446 -1.2769135 71.31640625 -1.2890625 C72.58484375 -1.31419922 72.58484375 -1.31419922 73.87890625 -1.33984375 C76.80411429 -0.90387524 78.18852836 -0.00100188 80.31640625 2.0234375 C80.31640625 2.6834375 80.31640625 3.3434375 80.31640625 4.0234375 C80.74308594 3.6625 81.16976562 3.3015625 81.609375 2.9296875 C87.06370095 -1.11888434 91.57079324 -1.5094546 98.265625 -1.4453125 C101.62614396 -0.92897156 103.6155752 -0.02097635 106.31640625 2.0234375 C106.31640625 2.6834375 106.31640625 3.3434375 106.31640625 4.0234375 C107.30640625 3.6934375 108.29640625 3.3634375 109.31640625 3.0234375 C111.12513001 2.87984416 112.93973202 2.80297629 114.75390625 2.7734375 C115.70136719 2.74765625 116.64882813 2.721875 117.625 2.6953125 C120.74410621 3.07558089 122.04744865 3.89402855 124.31640625 6.0234375 C124.98307292 7.35677083 125.64973958 8.69010417 126.31640625 10.0234375 C126.99703125 10.4153125 127.67765625 10.8071875 128.37890625 11.2109375 C131.13109653 13.78556712 131.16296598 16.12940735 131.42578125 19.796875 C131.2739008 22.88872708 130.29452343 24.67900232 128.31640625 27.0234375 C127.65640625 27.3534375 126.99640625 27.6834375 126.31640625 28.0234375 C126.31640625 29.3434375 126.31640625 30.6634375 126.31640625 32.0234375 C127.14140625 32.7659375 127.96640625 33.5084375 128.81640625 34.2734375 C131.35861391 37.06986593 131.72687988 37.50700136 131.87890625 41.0234375 C131.6206627 45.04140327 130.27500058 47.23390571 127.31640625 50.0234375 C122.12029209 51.75547555 117.1828014 51.65730755 112.00390625 49.8984375 C107.7005043 46.89606405 105.26080471 43.16207619 104.31640625 38.0234375 C104.24952034 36.10782496 104.23108906 34.19008158 104.25390625 32.2734375 C104.26292969 31.28859375 104.27195312 30.30375 104.28125 29.2890625 C104.29865234 28.16757813 104.29865234 28.16757813 104.31640625 27.0234375 C102.33640625 27.5184375 102.33640625 27.5184375 100.31640625 28.0234375 C100.24292969 29.56064453 100.24292969 29.56064453 100.16796875 31.12890625 C100.09289554 32.4896081 100.0173497 33.85028394 99.94140625 35.2109375 C99.895 36.22124023 99.895 36.22124023 99.84765625 37.25195312 C99.61589696 41.21117436 99.14462052 44.48411877 97.31640625 48.0234375 C93.41414004 51.25674379 90.28068241 51.45890032 85.31640625 51.0234375 C84.28515625 50.6521875 83.25390625 50.2809375 82.19140625 49.8984375 C79.38271363 48.71416944 79.38271363 48.71416944 77.00390625 49.9609375 C73.10564141 51.50211197 69.33546657 51.1448607 65.31640625 50.0234375 C61.49164685 47.12189589 61.2764414 43.52821782 60.31640625 39.0234375 C60.01347656 39.72210938 59.71054687 40.42078125 59.3984375 41.140625 C58.77001953 42.50574219 58.77001953 42.50574219 58.12890625 43.8984375 C57.51982422 45.25582031 57.51982422 45.25582031 56.8984375 46.640625 C54.95310695 49.57062904 53.69158665 50.15967092 50.31640625 51.0234375 C46.86719717 51.23070892 43.65488496 50.92420747 40.31640625 50.0234375 C37.69140625 47.4609375 37.69140625 47.4609375 36.31640625 45.0234375 C35.35734375 46.23 35.35734375 46.23 34.37890625 47.4609375 C30.41826734 50.77494149 27.3881513 51.18942188 22.31640625 51.0234375 C19.19864698 50.27788637 17.83691172 49.56322095 15.62890625 47.2734375 C14.07914849 44.61670991 13.18598641 41.96663187 12.31640625 39.0234375 C11.92453125 39.5803125 11.53265625 40.1371875 11.12890625 40.7109375 C7.47737269 45.36979066 3.99708622 49.09606394 -1.68359375 51.0234375 C-9.36117373 51.84531943 -16.36461827 51.84856535 -22.68359375 47.0234375 C-25.87483109 44.24810076 -27.52003489 41.51411408 -28.87109375 37.4609375 C-28.68359375 34.0234375 -28.68359375 34.0234375 -27.39453125 32.46875 C-25.74609375 31.0859375 -25.74609375 31.0859375 -22.68359375 29.0234375 C-23.04453125 28.48976562 -23.40546875 27.95609375 -23.77734375 27.40625 C-27.42696342 21.54658286 -28.76019838 16.90644915 -27.68359375 10.0234375 C-25.85796257 5.19088437 -22.02007076 2.58590119 -17.68359375 0.0234375 C-12.03070044 -1.86086027 -5.63142188 -2.04928016 0 0 Z " fill="#050301" transform="translate(230.68359375,169.9765625)"/>
<path d="M0 0 C3.23719009 2.00368829 5.89811546 4.25100787 8.5390625 6.98828125 C8.9928125 6.51390625 9.4465625 6.03953125 9.9140625 5.55078125 C12.80269237 2.77325252 15.00922327 2.80109368 18.9140625 2.73828125 C19.87054688 2.7125 20.82703125 2.68671875 21.8125 2.66015625 C24.95509011 3.03834761 26.25636501 3.84108635 28.5390625 5.98828125 C29.20572917 7.32161458 29.87239583 8.65494792 30.5390625 9.98828125 C32.32635239 11.87073654 32.32635239 11.87073654 34.5390625 12.98828125 C36.72076188 12.61005853 38.65865209 11.94330192 40.73046875 11.1640625 C47.44618496 8.71896648 52.73614223 8.76322595 59.5390625 10.98828125 C61.82079813 12.15332931 63.53682983 13.36484936 65.5390625 14.98828125 C65.8690625 13.99828125 66.1990625 13.00828125 66.5390625 11.98828125 C70.32216521 9.46621278 72.34761157 9.81440759 76.8515625 9.92578125 C81.59961136 10.03444306 85.8670042 9.77715863 90.5390625 8.98828125 C93.17491064 9.80413901 95.19632004 10.75610087 97.4765625 12.30078125 C99.6938512 13.30495286 99.6938512 13.30495286 102.2890625 11.67578125 C103.3615625 11.11890625 104.4340625 10.56203125 105.5390625 9.98828125 C112.5698915 8.37464837 118.13814597 9.28076086 124.3359375 13.09375 C129.34334942 16.92367644 131.43297344 21.3430291 132.4140625 27.42578125 C132.80927122 31.95548118 131.54362145 34.90206492 129.5390625 38.98828125 C129.384375 40.53515625 129.384375 40.53515625 129.2265625 42.11328125 C128.23103376 46.27640142 125.99188769 47.61869533 122.5390625 49.98828125 C116.5352117 51.98537807 109.76553346 51.65622254 103.7890625 49.86328125 C97.06332165 45.98304614 93.17896215 42.74722017 90.94921875 35.13671875 C90.5390625 32.98828125 90.5390625 32.98828125 90.5390625 28.98828125 C89.2190625 29.31828125 87.8990625 29.64828125 86.5390625 29.98828125 C86.46558594 31.54289062 86.46558594 31.54289062 86.390625 33.12890625 C86.31556653 34.49872333 86.24002003 35.86851373 86.1640625 37.23828125 C86.133125 37.92019531 86.1021875 38.60210937 86.0703125 39.3046875 C85.85797782 42.94976623 85.64106411 45.93626468 83.5390625 48.98828125 C79.59351185 51.24288162 76.01583022 51.38799265 71.5390625 50.98828125 C68.66600278 49.58367428 66.79395251 48.24317126 64.5390625 45.98828125 C63.6109375 46.62765625 62.6828125 47.26703125 61.7265625 47.92578125 C56.17821439 51.51588885 50.99986906 51.68555409 44.5390625 50.98828125 C42.26944008 50.06014096 40.33549941 49.01789182 38.29296875 47.66796875 C36.50330697 46.74859202 36.50330697 46.74859202 34.56640625 47.74609375 C33.89738281 48.15601563 33.22835937 48.5659375 32.5390625 48.98828125 C28.17052112 51.43155637 24.46627727 51.54430375 19.5390625 50.98828125 C15.31290163 49.42303648 12.92123015 47.82621802 10.5390625 43.98828125 C8.49124997 44.94511942 6.67534281 45.88171134 4.890625 47.27734375 C-0.47198382 51.42669265 -5.44935314 51.72613505 -12.109375 51.4765625 C-18.31307081 50.57276066 -21.77873108 47.84302166 -25.8984375 43.30078125 C-28.37545549 39.63479463 -28.91647717 37.45257 -28.4609375 32.98828125 C-26.5859375 31.11328125 -26.5859375 31.11328125 -24.4609375 29.98828125 C-23.8009375 29.98828125 -23.1409375 29.98828125 -22.4609375 29.98828125 C-22.821875 29.38242188 -23.1828125 28.7765625 -23.5546875 28.15234375 C-26.93835692 22.04294063 -28.75708135 16.98988072 -27.4609375 9.98828125 C-25.10421658 5.09355318 -22.13281406 2.67212523 -17.4609375 -0.01171875 C-11.95649691 -1.84653228 -5.431152 -2.23280693 0 0 Z M48.5390625 28.98828125 C48.8690625 29.97828125 49.1990625 30.96828125 49.5390625 31.98828125 C50.1990625 31.32828125 50.8590625 30.66828125 51.5390625 29.98828125 C50.5490625 29.65828125 49.5590625 29.32828125 48.5390625 28.98828125 Z " fill="#1A0D02" transform="translate(401.4609375,170.01171875)"/>
<path d="M0 0 C3.05455775 1.66668567 4.44891301 3.89782603 6 7 C7.1960083 7.0093457 8.3920166 7.01869141 9.62426758 7.02832031 C14.05824138 7.06816814 18.49151748 7.13391191 22.92504883 7.20751953 C24.84455407 7.23575948 26.76417625 7.25695895 28.68383789 7.27099609 C31.44217938 7.29238411 34.19911038 7.33901133 36.95703125 7.390625 C37.81649857 7.39185364 38.67596588 7.39308228 39.56147766 7.39434814 C45.48452356 7.54023102 45.48452356 7.54023102 48.06933594 9.84570312 C50.767774 16.0920351 46.35603692 23.89640666 44.0625 29.75 C43.52206055 31.16732422 43.52206055 31.16732422 42.97070312 32.61328125 C41.52531882 36.35584172 40.23434817 39.64847774 38 43 C37.90840831 45.31686887 37.90840831 45.31686887 38.125 47.8125 C38.24585242 53.7342686 36.23529615 56.60503984 32.25 60.875 C28.91378213 62.54310893 25.66220456 62.55076123 22 62 C19.3836085 61.05519196 18.26237388 60.40327837 16.734375 58.0546875 C16.40953125 57.33539063 16.0846875 56.61609375 15.75 55.875 C15.41484375 55.15054688 15.0796875 54.42609375 14.734375 53.6796875 C14.49203125 53.12539062 14.2496875 52.57109375 14 52 C12.68 52 11.36 52 10 52 C8.56498565 53.68540017 8.56498565 53.68540017 7.5 55.875 C5.75272823 59.1688434 4.5464561 60.70073758 1 62 C-5.96132597 62.66298343 -5.96132597 62.66298343 -9.9375 60.125 C-12.94904642 57.0221946 -13.15649326 55.28561817 -13.1875 51.0625 C-13.20167969 50.18722656 -13.21585938 49.31195313 -13.23046875 48.41015625 C-13 46 -13 46 -11 43 C-11.93972656 42.81824219 -11.93972656 42.81824219 -12.8984375 42.6328125 C-13.71570313 42.46523437 -14.53296875 42.29765625 -15.375 42.125 C-16.59316406 41.88136719 -16.59316406 41.88136719 -17.8359375 41.6328125 C-20 41 -20 41 -22 39 C-22.625 36.375 -22.625 36.375 -23 34 C-24.258125 33.7525 -25.51625 33.505 -26.8125 33.25 C-29.64178712 32.54017885 -30.80158499 32.19201453 -32.9375 30.125 C-33.98199709 28.03600583 -34.69126291 26.3155282 -35 24 C-34 22 -34 22 -31.0625 20.75 C-27.22526725 18.55729557 -27.29656288 17.0625637 -26 13 C-22.66231761 11.01543209 -19.83347895 10.78094406 -16 11 C-16.33 10.34 -16.66 9.68 -17 9 C-17.04022391 6.6670134 -17.04320247 4.33293334 -17 2 C-11.82553057 -1.15022711 -5.84250207 -0.7478995 0 0 Z M6 21 C6 24.63 6 28.26 6 32 C13.59 32 21.18 32 29 32 C29.99 28.37 30.98 24.74 32 21 C23.42 21 14.84 21 6 21 Z " fill="#B56030" transform="translate(140,164)"/>
<path d="M0 0 C7.22894011 0.08786557 7.22894011 0.08786557 9.9375 2.8125 C11.6875 5.4375 11.6875 5.4375 12.6875 7.4375 C13.8835083 7.4468457 15.0795166 7.45619141 16.31176758 7.46582031 C20.74574138 7.50566814 25.17901748 7.57141191 29.61254883 7.64501953 C31.53205407 7.67325948 33.45167625 7.69445895 35.37133789 7.70849609 C38.12967938 7.72988411 40.88661038 7.77651133 43.64453125 7.828125 C44.50399857 7.82935364 45.36346588 7.83058228 46.24897766 7.83184814 C52.17202356 7.97773102 52.17202356 7.97773102 54.75683594 10.28320312 C57.455274 16.5295351 53.04353692 24.33390666 50.75 30.1875 C50.20956055 31.60482422 50.20956055 31.60482422 49.65820312 33.05078125 C48.21281882 36.79334172 46.92184817 40.08597774 44.6875 43.4375 C44.59590831 45.75436887 44.59590831 45.75436887 44.8125 48.25 C44.93335242 54.1717686 42.92279615 57.04253984 38.9375 61.3125 C35.60128213 62.98060893 32.34970456 62.98826123 28.6875 62.4375 C26.0711085 61.49269196 24.94987388 60.84077837 23.421875 58.4921875 C23.09703125 57.77289063 22.7721875 57.05359375 22.4375 56.3125 C22.10234375 55.58804688 21.7671875 54.86359375 21.421875 54.1171875 C21.17953125 53.56289062 20.9371875 53.00859375 20.6875 52.4375 C19.3675 52.4375 18.0475 52.4375 16.6875 52.4375 C15.25248565 54.12290017 15.25248565 54.12290017 14.1875 56.3125 C12.44022823 59.6063434 11.2339561 61.13823758 7.6875 62.4375 C0.72617403 63.10048343 0.72617403 63.10048343 -3.25 60.5625 C-6.26154642 57.4596946 -6.46899326 55.72311817 -6.5 51.5 C-6.51417969 50.62472656 -6.52835938 49.74945313 -6.54296875 48.84765625 C-6.3125 46.4375 -6.3125 46.4375 -4.3125 43.4375 C-5.25222656 43.25574219 -5.25222656 43.25574219 -6.2109375 43.0703125 C-7.02820313 42.90273437 -7.84546875 42.73515625 -8.6875 42.5625 C-9.49960938 42.40007812 -10.31171875 42.23765625 -11.1484375 42.0703125 C-13.3125 41.4375 -13.3125 41.4375 -15.3125 39.4375 C-15.3125 38.1175 -15.3125 36.7975 -15.3125 35.4375 C-11.0225 35.4375 -6.7325 35.4375 -2.3125 35.4375 C-2.3125 36.4275 -2.3125 37.4175 -2.3125 38.4375 C10.5575 38.1075 23.4275 37.7775 36.6875 37.4375 C40.51570747 28.50501591 44.19885043 19.50798889 47.6875 10.4375 C32.8375 10.4375 17.9875 10.4375 2.6875 10.4375 C2.6875 7.7975 2.6875 5.1575 2.6875 2.4375 C-0.9425 2.4375 -4.5725 2.4375 -8.3125 2.4375 C-5.56441738 -0.31058262 -3.83475466 0.0738288 0 0 Z " fill="#020101" transform="translate(133.3125,163.5625)"/>
<path d="M0 0 C2.36288881 1.44594688 3.34487734 2.7170722 5 5 C5.66 4.01 6.32 3.02 7 2 C9.3828125 1.70703125 9.3828125 1.70703125 12.125 1.8125 C13.03507812 1.83957031 13.94515625 1.86664063 14.8828125 1.89453125 C15.58148438 1.92933594 16.28015625 1.96414062 17 2 C14.79057688 13.2312342 10.4716066 23.49905499 6 34 C3.03 34 0.06 34 -3 34 C-6.10429554 28.21472195 -8.40366169 22.66041783 -8 16 C-8.66 16 -9.32 16 -10 16 C-10.18175781 16.79664063 -10.36351562 17.59328125 -10.55078125 18.4140625 C-11.87019942 23.97591755 -13.11089563 29.04724965 -16 34 C-18.97 34 -21.94 34 -25 34 C-27.90187787 27.65885947 -30.48473296 21.24629512 -32.94921875 14.72265625 C-33.91666071 12.08736498 -33.91666071 12.08736498 -35 10 C-35.13415472 7.3276379 -35.04318541 4.67749512 -35 2 C-32.03 2 -29.06 2 -26 2 C-23.80236996 6.69493691 -22.41336612 11.08871922 -21.4296875 16.1796875 C-21.16627189 18.00897624 -21.16627189 18.00897624 -20 19 C-19.81824219 18.35933594 -19.63648438 17.71867187 -19.44921875 17.05859375 C-16.05259688 5.37073081 -13.88257534 -2.08745293 0 0 Z " fill="#EC6E07" transform="translate(272,180)"/>
<path d="M0 0 C4.49971103 2.45617415 8.34687163 5.04061488 10 10 C9.34 10 8.68 10 8 10 C7.67 10.99 7.34 11.98 7 13 C4.6875 13.6875 4.6875 13.6875 2 14 C1 13 0 12 -1 11 C-4.12549017 10.74951364 -4.12549017 10.74951364 -7 11 C-7 12.32 -7 13.64 -7 15 C-6.34773438 15.24234375 -5.69546875 15.4846875 -5.0234375 15.734375 C7.30911493 20.46367239 7.30911493 20.46367239 11 26 C11.42763893 31.30272272 11.53414849 34.75902182 8 39 C4.08907387 42.80800702 0.77704907 43.32570111 -4.5 43.5 C-11.42216663 43.27924753 -14.16512787 41.92631962 -18.9375 37 C-20 35 -20 35 -20 32.875 C-18.58751635 30.22659316 -16.74356788 29.99366401 -14 29 C-14.3609375 28.39414063 -14.721875 27.78828125 -15.09375 27.1640625 C-18.47076426 21.06667564 -20.31602873 15.99064804 -19 9 C-14.73187666 0.6161863 -9.10018621 -1.75144903 0 0 Z " fill="#E56D0A" transform="translate(393,171)"/>
<path d="M0 0 C2.1344408 1.88933755 3.00124538 3.68220635 3.6328125 6.4453125 C-0.76384721 9.49854841 -0.76384721 9.49854841 -3.4921875 9.2578125 C-5.3671875 8.4453125 -5.3671875 8.4453125 -8.3671875 6.4453125 C-11.01351037 6.7574889 -11.01351037 6.7574889 -13.3671875 7.4453125 C-13.3671875 8.7653125 -13.3671875 10.0853125 -13.3671875 11.4453125 C-12.64273438 11.67605469 -11.91828125 11.90679687 -11.171875 12.14453125 C1.64403944 16.46776639 1.64403944 16.46776639 4.6328125 22.4453125 C5.16598614 26.89425322 5.24048478 30.37020001 3.0078125 34.3203125 C-2.20188509 38.98162087 -6.7366099 40.06006984 -13.60546875 39.86328125 C-17.96624061 39.20330588 -21.1742288 37.46678237 -24.3671875 34.4453125 C-25.8671875 31.6328125 -25.8671875 31.6328125 -26.3671875 29.4453125 C-23.3971875 26.9703125 -23.3971875 26.9703125 -20.3671875 24.4453125 C-20.728125 23.91164062 -21.0890625 23.37796875 -21.4609375 22.828125 C-25.09990311 16.98556354 -26.4737885 12.31345569 -25.3671875 5.4453125 C-23.77270963 1.69828951 -21.84332994 -0.4479345 -18.3671875 -2.5546875 C-11.62860463 -5.20198791 -5.74259818 -3.94099875 0 0 Z " fill="#F27106" transform="translate(228.3671875,174.5546875)"/>
<path d="M0 0 C5.49639552 1.93391694 9.53080303 5.27149135 12.3125 10.4375 C13.80989168 16.01868718 13.12739364 20.09791229 10.3828125 25.09765625 C7.34813775 29.27247716 3.57471397 31.54469064 -1.49609375 32.44140625 C-7.17238509 32.70923735 -11.71108298 31.85459631 -16 28 C-18.80978516 24.91132797 -20.77285021 21.9720732 -21.2578125 17.76171875 C-20.87220766 11.19509509 -17.95577369 5.74779814 -13.16796875 1.296875 C-9.11065489 -1.13020284 -4.56982509 -0.4848797 0 0 Z M-1 17 C-0.67 17.99 -0.34 18.98 0 20 C0.66 19.34 1.32 18.68 2 18 C1.01 17.67 0.02 17.34 -1 17 Z " fill="#E66E0B" transform="translate(451,182)"/>
<path d="M0 0 C1.11071365 0.03535606 1.11071365 0.03535606 2.24386597 0.07142639 C3.80265153 0.12723309 5.36096843 0.19787713 6.91845703 0.2824707 C9.30364427 0.41010043 11.68675469 0.48905562 14.07421875 0.56054688 C15.59126164 0.62085185 17.10819818 0.68390867 18.625 0.75 C19.69380905 0.78781837 19.69380905 0.78781837 20.78421021 0.82640076 C23.66778648 0.99637645 25.72678771 1.15467124 28.12451172 2.83813477 C29.83717444 5.4911373 29.61047856 7.39557728 29.1796875 10.47265625 C27.32950051 13.55630124 26.11815272 15.11170809 22.7421875 16.41015625 C19.70837066 16.48415178 17.85330619 15.88373278 15.1796875 14.47265625 C14.8496875 13.81265625 14.5196875 13.15265625 14.1796875 12.47265625 C12.8596875 12.47265625 11.5396875 12.47265625 10.1796875 12.47265625 C8.74467315 14.15805642 8.74467315 14.15805642 7.6796875 16.34765625 C5.93241573 19.64149965 4.7261436 21.17339383 1.1796875 22.47265625 C-5.78163847 23.13563968 -5.78163847 23.13563968 -9.7578125 20.59765625 C-12.66517002 17.60219698 -13.03439098 15.80758715 -13.1953125 11.72265625 C-13.24429688 10.8821875 -13.29328125 10.04171875 -13.34375 9.17578125 C-11.86957891 1.5628977 -7.09730373 -0.43506307 0 0 Z " fill="#E89C42" transform="translate(139.8203125,203.52734375)"/>
<path d="M0 0 C4.67593331 4.64237398 6.51263683 9.53426055 7.078125 16.015625 C6.95665193 19.48975471 5.51328725 22.16522214 4 25.25 C3.896875 26.28125 3.79375 27.3125 3.6875 28.375 C2.69197126 32.53812017 0.45282519 33.88041408 -3 36.25 C-9.0038508 38.24709682 -15.77352904 37.91794129 -21.75 36.125 C-26.57135428 33.34344946 -30.7505073 30.48867441 -33.5 25.5625 C-34 23.25 -34 23.25 -33 20.25 C-32.505 21.178125 -32.01 22.10625 -31.5 23.0625 C-28.80806437 27.04392927 -25.61825232 28.30266619 -21 29.25 C-15.26893551 29.87806186 -10.695805 30.006644 -6 26.25 C-6.79117904 24.25016466 -6.79117904 24.25016466 -8 22.25 C-11 20.91666667 -11 20.91666667 -14 22.25 C-16.33299825 22.28954234 -18.66708189 22.29401732 -21 22.25 C-21.66 20.93 -22.32 19.61 -23 18.25 C-16.4 18.25 -9.8 18.25 -3 18.25 C-3.01678742 10.4719977 -3.01678742 10.4719977 -6.25 3.6875 C-11.87079192 -1.29456556 -16.78413867 -1.00220486 -24 -0.75 C-23 -2.75 -23 -2.75 -19.625 -4 C-12.72302044 -5.53652687 -5.57697191 -4.48044255 0 0 Z " fill="#030201" transform="translate(527,183.75)"/>
<path d="M0 0 C1.58246707 -0.08153933 3.16616273 -0.13943557 4.75 -0.1875 C6.07257813 -0.23970703 6.07257813 -0.23970703 7.421875 -0.29296875 C10.48475196 0.05508545 11.76522683 0.92125829 14 3 C14.66666667 4.33333333 15.33333333 5.66666667 16 7 C16.680625 7.391875 17.36125 7.78375 18.0625 8.1875 C20.81469028 10.76212962 20.84655973 13.10596985 21.109375 16.7734375 C20.95749455 19.86528958 19.97811718 21.65556482 18 24 C17.34 24.33 16.68 24.66 16 25 C16 26.32 16 27.64 16 29 C17.2375 30.11375 17.2375 30.11375 18.5 31.25 C21.04220766 34.04642843 21.41047363 34.48356386 21.5625 38 C21.30425645 42.01796577 19.95859433 44.21046821 17 47 C11.80388584 48.73203805 6.86639515 48.63387005 1.6875 46.875 C-1.53995658 44.62328611 -3.18692939 42.48109558 -5 39 C-4.67 38.01 -4.34 37.02 -4 36 C-3.46890625 36.65484375 -2.9378125 37.3096875 -2.390625 37.984375 C0.68290067 40.575779 2.29289587 40.42204801 6.25 40.25 C7.86648438 40.19585937 7.86648438 40.19585937 9.515625 40.140625 C10.33546875 40.09421875 11.1553125 40.0478125 12 40 C12 37.36 12 34.72 12 32 C9.69 32 7.38 32 5 32 C5 27.38 5 22.76 5 18 C7.31 18 9.62 18 12 18 C12 15.36 12 12.72 12 10 C9.69 10 7.38 10 5 10 C5 7.36 5 4.72 5 2 C3.02 2 1.04 2 -1 2 C-0.67 1.34 -0.34 0.68 0 0 Z " fill="#040201" transform="translate(341,173)"/>
<path d="M0 0 C0.99 0.66 1.98 1.32 3 2 C2.125 6.75 2.125 6.75 1 9 C-1.31 9 -3.62 9 -6 9 C-6 9.99 -6 10.98 -6 12 C-4.02 12 -2.04 12 0 12 C0 14.64 0 17.28 0 20 C-1.98 20 -3.96 20 -6 20 C-6 27.59 -6 35.18 -6 43 C-9.3 43 -12.6 43 -16 43 C-16 35.41 -16 27.82 -16 20 C-17.32 20 -18.64 20 -20 20 C-20 17.36 -20 14.72 -20 12 C-18.68 11.67 -17.36 11.34 -16 11 C-15.9175 9.9275 -15.835 8.855 -15.75 7.75 C-15 4 -15 4 -13.625 1.5625 C-9.40203948 -0.95116697 -4.79501231 -0.62957414 0 0 Z " fill="#EC6F08" transform="translate(326,171)"/>
<path d="M0 0 C1.64574566 -0.02688151 3.29161413 -0.04634123 4.9375 -0.0625 C5.85402344 -0.07410156 6.77054687 -0.08570313 7.71484375 -0.09765625 C10 0 10 0 11 1 C11.04092937 3.33297433 11.04241723 5.66705225 11 8 C12.98 8 14.96 8 17 8 C17 10.64 17 13.28 17 16 C15.02 16 13.04 16 11 16 C11 20.62 11 25.24 11 30 C12.98 30 14.96 30 17 30 C17 32.64 17 35.28 17 38 C14.59486979 39.20256511 12.87146436 39.2703777 10.1875 39.375 C9.33542969 39.42398438 8.48335938 39.47296875 7.60546875 39.5234375 C3.68533849 38.73588509 2.32916154 37.21192205 0 34 C-0.58122649 31.02984946 -0.47658602 28.19910958 -0.3125 25.1875 C-0.28994141 24.39923828 -0.26738281 23.61097656 -0.24414062 22.79882812 C-0.18554161 20.86506071 -0.09586827 18.93227833 0 17 C-1.32 16.67 -2.64 16.34 -4 16 C-4 13.36 -4 10.72 -4 8 C-2.68 7.67 -1.36 7.34 0 7 C0 4.69 0 2.38 0 0 Z " fill="#E56C08" transform="translate(411,175)"/>
<path d="M0 0 C4.29 0 8.58 0 13 0 C13 2.64 13 5.28 13 8 C27.85 8 42.7 8 58 8 C57.67 8.66 57.34 9.32 57 10 C42.15 9.67 27.3 9.34 12 9 C12 6.69 12 4.38 12 2 C11.01 2.495 11.01 2.495 10 3 C10.01160156 4.13179687 10.02320313 5.26359375 10.03515625 6.4296875 C10.04453454 7.91145669 10.0536347 9.39322765 10.0625 10.875 C10.07087891 11.62136719 10.07925781 12.36773437 10.08789062 13.13671875 C10.11328125 18.7734375 10.11328125 18.7734375 9 21 C0.75 21 -7.5 21 -16 21 C-16 21.99 -16 22.98 -16 24 C-8.08 24 -0.16 24 8 24 C8 25.65 8 27.3 8 29 C3.71 29 -0.58 29 -5 29 C-5 29.66 -5 30.32 -5 31 C-9.3942304 31.4308069 -11.32859745 31.52544547 -14.875 28.75 C-17.79510022 24.97104677 -17.79510022 24.97104677 -18 22 C-17 20 -17 20 -14.0625 18.75 C-10.22526725 16.55729557 -10.29656288 15.0625637 -9 11 C-5.66231761 9.01543209 -2.83347895 8.78094406 1 9 C0.67 8.34 0.34 7.68 0 7 C-0.04022391 4.6670134 -0.04320247 2.33293334 0 0 Z " fill="#99513A" transform="translate(123,166)"/>
<path d="M0 0 C3.3 0 6.6 0 10 0 C10 2.64 10 5.28 10 8 C12.31 8 14.62 8 17 8 C17 10.64 17 13.28 17 16 C14.69 16 12.38 16 10 16 C10 20.62 10 25.24 10 30 C12.31 30 14.62 30 17 30 C17 32.64 17 35.28 17 38 C14.32296769 38.8923441 12.40616916 39.25160342 9.625 39.375 C8.87476563 39.42398438 8.12453125 39.47296875 7.3515625 39.5234375 C3.59526915 38.68731905 2.24698712 37.08124504 0 34 C-0.58903119 30.86676229 -0.47531804 27.86119938 -0.3125 24.6875 C-0.28994141 23.85154297 -0.26738281 23.01558594 -0.24414062 22.15429688 C-0.1855061 20.10208851 -0.09583215 18.05080798 0 16 C-1.32 16 -2.64 16 -4 16 C-4 13.36 -4 10.72 -4 8 C-2.68 7.67 -1.36 7.34 0 7 C0 4.69 0 2.38 0 0 Z " fill="#EF7007" transform="translate(336,175)"/>
<path d="M0 0 C1.6874269 0.00015917 3.37485866 0.00585622 5.06225586 0.01586914 C6.39189613 0.01799156 6.39189613 0.01799156 7.74839783 0.02015686 C10.59133215 0.02577324 13.43418892 0.03832848 16.27709961 0.05102539 C18.19962452 0.05603828 20.12215065 0.06060155 22.04467773 0.06469727 C26.7680151 0.07574798 31.49129419 0.09302356 36.21459961 0.11352539 C35.22459961 3.08352539 34.23459961 6.05352539 33.21459961 9.11352539 C24.30459961 8.78352539 15.39459961 8.45352539 6.21459961 8.11352539 C6.54459961 8.77352539 6.87459961 9.43352539 7.21459961 10.11352539 C7.44793294 16.64685872 7.44793294 16.64685872 6.21459961 19.11352539 C13.47459961 19.11352539 20.73459961 19.11352539 28.21459961 19.11352539 C28.21459961 19.77352539 28.21459961 20.43352539 28.21459961 21.11352539 C16.99459961 21.44352539 5.77459961 21.77352539 -5.78540039 22.11352539 C-5.78540039 19.14352539 -5.78540039 16.17352539 -5.78540039 13.11352539 C-4.13540039 13.11352539 -2.48540039 13.11352539 -0.78540039 13.11352539 C-0.78540039 12.12352539 -0.78540039 11.13352539 -0.78540039 10.11352539 C-2.10540039 10.11352539 -3.42540039 10.11352539 -4.78540039 10.11352539 C-4.81229255 8.63445647 -4.83174661 7.15525056 -4.84790039 5.67602539 C-4.85950195 4.85231445 -4.87110352 4.02860352 -4.88305664 3.17993164 C-4.7086507 -0.51049808 -3.86308792 0.11585526 0 0 Z " fill="#0A0603" transform="translate(139.785400390625,176.886474609375)"/>
<path d="M0 0 C2.97 0 5.94 0 9 0 C11.19763004 4.69493691 12.58663388 9.08871922 13.5703125 14.1796875 C13.83372811 16.00897624 13.83372811 16.00897624 15 17 C15.4803318 15.41701974 15.95921612 13.83360022 16.4375 12.25 C16.70433594 11.36828125 16.97117188 10.4865625 17.24609375 9.578125 C17.88468494 7.39434165 18.46775833 5.21164502 19 3 C20.65 2.67 22.3 2.34 24 2 C23.67 4.64 23.34 7.28 23 10 C23.66 10.33 24.32 10.66 25 11 C25 11.66 25 12.32 25 13 C25.66 13.33 26.32 13.66 27 14 C26.34 14 25.68 14 25 14 C24.81824219 14.79664063 24.63648438 15.59328125 24.44921875 16.4140625 C23.12980058 21.97591755 21.88910437 27.04724965 19 32 C16.03 32 13.06 32 10 32 C7.09812213 25.65885947 4.51526704 19.24629512 2.05078125 12.72265625 C1.08333929 10.08736498 1.08333929 10.08736498 0 8 C-0.13415472 5.3276379 -0.04318541 2.67749512 0 0 Z " fill="#EB6F09" transform="translate(237,182)"/>
<path d="M0 0 C1.23556641 0.01740234 1.23556641 0.01740234 2.49609375 0.03515625 C3.32238281 0.04417969 4.14867187 0.05320313 5 0.0625 C5.63808594 0.07410156 6.27617187 0.08570313 6.93359375 0.09765625 C7.59359375 1.41765625 8.25359375 2.73765625 8.93359375 4.09765625 C9.42859375 3.43765625 9.92359375 2.77765625 10.43359375 2.09765625 C14.03699587 -0.78506545 16.40344417 -0.20435372 20.93359375 0.09765625 C20.93359375 3.39765625 20.93359375 6.69765625 20.93359375 10.09765625 C18.98046875 10.22786458 17.02734375 10.35807292 15.07421875 10.48828125 C11.94665341 11.37861007 10.82815737 12.43861959 8.93359375 15.09765625 C8.31623744 18.00974225 8.23777095 20.8777605 8.18359375 23.84765625 C8.15394531 24.64042969 8.12429688 25.43320313 8.09375 26.25 C8.02331588 28.19867719 7.97615893 30.1481712 7.93359375 32.09765625 C4.63359375 32.09765625 1.33359375 32.09765625 -2.06640625 32.09765625 C-2.23367314 27.70130578 -2.39426718 23.30477864 -2.54858398 18.90795898 C-2.60207059 17.41114687 -2.65740495 15.91439962 -2.71459961 14.41772461 C-2.79632581 12.27081293 -2.87148085 10.12375832 -2.9453125 7.9765625 C-2.99244385 6.68306885 -3.0395752 5.3895752 -3.08813477 4.05688477 C-3.0594082 0.14458451 -3.0594082 0.14458451 0 0 Z " fill="#F77104" transform="translate(470.06640625,181.90234375)"/>
<path d="M0 0 C3.16617475 2.17286503 4.74398208 3.9580466 5.625 7.8125 C1.22834029 10.86573591 1.22834029 10.86573591 -1.5 10.625 C-3.375 9.8125 -3.375 9.8125 -6.375 7.8125 C-9.02132287 8.1246764 -9.02132287 8.1246764 -11.375 8.8125 C-11.705 10.7925 -12.035 12.7725 -12.375 14.8125 C-11.385 14.8125 -10.395 14.8125 -9.375 14.8125 C-9.375 15.4725 -9.375 16.1325 -9.375 16.8125 C-7.725 17.1425 -6.075 17.4725 -4.375 17.8125 C-3.9109375 19.2665625 -3.9109375 19.2665625 -3.4375 20.75 C-2.67976658 23.65315792 -2.67976658 23.65315792 -1.375 24.8125 C-1.33407063 27.14547433 -1.33258277 29.47955225 -1.375 31.8125 C-5.4955746 33.81035435 -8.82694365 33.99085515 -13.375 33.8125 C-13.705 32.4925 -14.035 31.1725 -14.375 29.8125 C-13.715 30.1425 -13.055 30.4725 -12.375 30.8125 C-10.0420134 30.85272391 -7.70793334 30.85570247 -5.375 30.8125 C-5.045 29.1625 -4.715 27.5125 -4.375 25.8125 C-5.27863281 25.48636719 -6.18226563 25.16023438 -7.11328125 24.82421875 C-8.88251953 24.16873047 -8.88251953 24.16873047 -10.6875 23.5 C-11.85925781 23.07074219 -13.03101563 22.64148438 -14.23828125 22.19921875 C-17.00897163 20.97431827 -18.59230883 20.21301916 -20.375 17.8125 C-20.375 17.1525 -20.375 16.4925 -20.375 15.8125 C-21.035 15.8125 -21.695 15.8125 -22.375 15.8125 C-23.1557571 5.90555994 -23.1557571 5.90555994 -20.1875 1.75 C-13.60215114 -2.78657366 -7.10986795 -4.10333577 0 0 Z " fill="#E96F0B" transform="translate(226.375,173.1875)"/>
<path d="M0 0 C3.3404988 2.2269992 6.11844853 4.1935548 7.8125 7.875 C8.22311592 11.64850837 8.04513594 15.05977065 7.8125 18.875 C-2.5825 19.37 -2.5825 19.37 -13.1875 19.875 C-13.1875 19.215 -13.1875 18.555 -13.1875 17.875 C-10.2175 17.875 -7.2475 17.875 -4.1875 17.875 C-4.5175 16.555 -4.8475 15.235 -5.1875 13.875 C-6.610625 13.9678125 -6.610625 13.9678125 -8.0625 14.0625 C-9.09375 14.000625 -10.125 13.93875 -11.1875 13.875 C-11.8475 12.885 -12.5075 11.895 -13.1875 10.875 C-12.5275 9.555 -11.8675 8.235 -11.1875 6.875 C-11.8475 6.875 -12.5075 6.875 -13.1875 6.875 C-12.8575 5.555 -12.5275 4.235 -12.1875 2.875 C-12.8475 2.545 -13.5075 2.215 -14.1875 1.875 C-14.1875 2.535 -14.1875 3.195 -14.1875 3.875 C-15.5075 3.875 -16.8275 3.875 -18.1875 3.875 C-18.1875 3.215 -18.1875 2.555 -18.1875 1.875 C-11.84600985 -1.29574508 -6.95717199 -2.45547247 0 0 Z " fill="#E36C09" transform="translate(516.1875,183.125)"/>
<path d="M0 0 C3.3 0 6.6 0 10 0 C10 10.23 10 20.46 10 31 C6.7 31 3.4 31 0 31 C0 20.77 0 10.54 0 0 Z " fill="#F67104" transform="translate(293,183)"/>
<path d="M0 0 C5.94 0 11.88 0 18 0 C16 7 16 7 15 10 C14.67 9.34 14.34 8.68 14 8 C12.68 8 11.36 8 10 8 C8.56498565 9.68540017 8.56498565 9.68540017 7.5 11.875 C5.75272823 15.1688434 4.5464561 16.70073758 1 18 C-3.64634566 18.44250911 -5.88453932 18.64079656 -9.9375 16.3125 C-12.18903896 13.78804723 -12.72253508 12.32957907 -13 9 C-12.67 9.66 -12.34 10.32 -12 11 C-7.05 10.01 -7.05 10.01 -2 9 C-1.34 6.03 -0.68 3.06 0 0 Z " fill="#090503" transform="translate(140,208)"/>
<path d="M0 0 C2.97 0 5.94 0 9 0 C11.19763004 4.69493691 12.58663388 9.08871922 13.5703125 14.1796875 C13.83372811 16.00897624 13.83372811 16.00897624 15 17 C15.66 15.35 16.32 13.7 17 12 C17.93065133 14.60582371 18.14917407 15.64198224 17.0625 18.25 C16.5365625 19.11625 16.5365625 19.11625 16 20 C15.01 20 14.02 20 13 20 C13 19.34 13 18.68 13 18 C11.35 17.67 9.7 17.34 8 17 C8.99 21.29 9.98 25.58 11 30 C13.64 30.33 16.28 30.66 19 31 C19 31.33 19 31.66 19 32 C16.03 32 13.06 32 10 32 C7.09812213 25.65885947 4.51526704 19.24629512 2.05078125 12.72265625 C1.08333929 10.08736498 1.08333929 10.08736498 0 8 C-0.13415472 5.3276379 -0.04318541 2.67749512 0 0 Z " fill="#D1660C" transform="translate(237,182)"/>
<path d="M0 0 C2.16141587 3.60235979 2.48571565 6.871417 2 11 C0.53293618 15.30949999 -1.32054516 18.35290015 -4.625 21.5 C-9.17027707 23.52012314 -13.10334634 23.34837852 -18 23 C-18.33 22.01 -18.66 21.02 -19 20 C-18.34 20 -17.68 20 -17 20 C-17 19.01 -17 18.02 -17 17 C-13.7 16.34 -10.4 15.68 -7 15 C-7 12.111391 -7.27416425 9.25440584 -7.5 6.375 C-7.5928125 5.18648437 -7.685625 3.99796875 -7.78125 2.7734375 C-7.8534375 1.85820312 -7.925625 0.94296875 -8 0 C-4.65284689 -1.1157177 -3.28928478 -1.1807689 0 0 Z " fill="#E56D08" transform="translate(462,190)"/>
<path d="M0 0 C2.05078125 0.03255208 4.1015625 0.06510417 6.15234375 0.09765625 C6.17946528 2.01424425 6.19879472 3.93094355 6.21484375 5.84765625 C6.22644531 6.915 6.23804688 7.98234375 6.25 9.08203125 C6.16744462 11.63134126 5.89851933 13.67699216 5.15234375 16.09765625 C4.18296875 15.95328125 3.21359375 15.80890625 2.21484375 15.66015625 C0.86068285 15.47261462 -0.49348443 15.28511902 -1.84765625 15.09765625 C-2.62753906 14.9790625 -3.40742187 14.86046875 -4.2109375 14.73828125 C-4.99855469 14.63 -5.78617188 14.52171875 -6.59765625 14.41015625 C-7.335 14.30316406 -8.07234375 14.19617188 -8.83203125 14.0859375 C-11.16904969 13.9148022 -11.16904969 13.9148022 -13.84765625 16.09765625 C-14.83765625 15.76765625 -15.82765625 15.43765625 -16.84765625 15.09765625 C-15.85765625 14.43765625 -14.86765625 13.77765625 -13.84765625 13.09765625 C-13.55890625 12.10765625 -13.27015625 11.11765625 -12.97265625 10.09765625 C-11.84765625 7.09765625 -11.84765625 7.09765625 -9.53515625 5.72265625 C-6.86266279 5.10114614 -4.58032984 4.94150347 -1.84765625 5.09765625 C-2.12609375 4.13859375 -2.12609375 4.13859375 -2.41015625 3.16015625 C-2.55453125 2.47953125 -2.69890625 1.79890625 -2.84765625 1.09765625 C-1.84765625 0.09765625 -1.84765625 0.09765625 0 0 Z " fill="#070403" transform="translate(125.84765625,169.90234375)"/>
<path d="M0 0 C14.52 0 29.04 0 44 0 C43.32547455 4.04715269 42.84778016 6.81961134 41.40625 10.453125 C41.09816406 11.236875 40.79007813 12.020625 40.47265625 12.828125 C39.99119141 14.02695313 39.99119141 14.02695313 39.5 15.25 C39.17902344 16.0646875 38.85804688 16.879375 38.52734375 17.71875 C36.20076885 23.5984623 36.20076885 23.5984623 35 26 C30.05 26 25.1 26 20 26 C19.67 25.34 19.34 24.68 19 24 C23.62 24 28.24 24 33 24 C33.04125 22.783125 33.0825 21.56625 33.125 20.3125 C34 15 34 15 40 2 C26.8 2 13.6 2 0 2 C0 1.34 0 0.68 0 0 Z " fill="#DE8845" transform="translate(136,175)"/>
<path d="M0 0 C1.23556641 0.01740234 1.23556641 0.01740234 2.49609375 0.03515625 C3.32238281 0.04417969 4.14867187 0.05320313 5 0.0625 C5.63808594 0.07410156 6.27617187 0.08570313 6.93359375 0.09765625 C7.59359375 1.41765625 8.25359375 2.73765625 8.93359375 4.09765625 C9.42859375 3.43765625 9.92359375 2.77765625 10.43359375 2.09765625 C14.03699587 -0.78506545 16.40344417 -0.20435372 20.93359375 0.09765625 C20.93359375 3.39765625 20.93359375 6.69765625 20.93359375 10.09765625 C18.98046875 10.22786458 17.02734375 10.35807292 15.07421875 10.48828125 C11.94665341 11.37861007 10.82815737 12.43861959 8.93359375 15.09765625 C8.31623744 18.00974225 8.23777095 20.8777605 8.18359375 23.84765625 C8.15394531 24.64042969 8.12429688 25.43320313 8.09375 26.25 C8.02331588 28.19867719 7.97615893 30.1481712 7.93359375 32.09765625 C4.63359375 32.09765625 1.33359375 32.09765625 -2.06640625 32.09765625 C-2.23367314 27.70130578 -2.39426718 23.30477864 -2.54858398 18.90795898 C-2.60207059 17.41114687 -2.65740495 15.91439962 -2.71459961 14.41772461 C-2.79632581 12.27081293 -2.87148085 10.12375832 -2.9453125 7.9765625 C-2.99244385 6.68306885 -3.0395752 5.3895752 -3.08813477 4.05688477 C-3.0594082 0.14458451 -3.0594082 0.14458451 0 0 Z M-1.06640625 2.09765625 C-1.06640625 10.67765625 -1.06640625 19.25765625 -1.06640625 28.09765625 C1.24359375 28.42765625 3.55359375 28.75765625 5.93359375 29.09765625 C5.99417969 28.1334375 6.05476563 27.16921875 6.1171875 26.17578125 C6.20097656 24.9125 6.28476562 23.64921875 6.37109375 22.34765625 C6.45230469 21.0946875 6.53351563 19.84171875 6.6171875 18.55078125 C6.85874897 15.91448072 7.17643309 13.61728331 7.93359375 11.09765625 C8.92359375 11.09765625 9.91359375 11.09765625 10.93359375 11.09765625 C10.93359375 10.43765625 10.93359375 9.77765625 10.93359375 9.09765625 C13.57359375 9.09765625 16.21359375 9.09765625 18.93359375 9.09765625 C18.93359375 6.78765625 18.93359375 4.47765625 18.93359375 2.09765625 C15.01765929 2.88084314 11.5695274 4.48945483 7.93359375 6.09765625 C7.60359375 4.77765625 7.27359375 3.45765625 6.93359375 2.09765625 C4.29359375 2.09765625 1.65359375 2.09765625 -1.06640625 2.09765625 Z " fill="#E7710C" transform="translate(470.06640625,181.90234375)"/>
<path d="M0 0 C0.74759079 0.03068573 1.49518158 0.06137146 2.26542664 0.09298706 C4.64161013 0.19715372 7.01291526 0.34399018 9.38671875 0.4921875 C11.00181831 0.57053853 12.61705626 0.64609046 14.23242188 0.71875 C18.18202561 0.90251267 22.1278118 1.12455585 26.07421875 1.3671875 C26.07421875 1.6971875 26.07421875 2.0271875 26.07421875 2.3671875 C15.18421875 2.3671875 4.29421875 2.3671875 -6.92578125 2.3671875 C-6.92578125 3.0271875 -6.92578125 3.6871875 -6.92578125 4.3671875 C-3.34250372 5.36935814 -3.34250372 5.36935814 0.07421875 4.3671875 C0.55285123 10.58940972 0.55285123 10.58940972 -1.42578125 13.8046875 C-5.06224586 16.07747788 -7.6836066 15.64999914 -11.92578125 15.3671875 C-13.50033864 12.21807271 -13.27377243 9.84709934 -12.92578125 6.3671875 C-9.33085895 0.67468625 -6.75950601 -0.49753636 0 0 Z " fill="#B85437" transform="translate(139.92578125,203.6328125)"/>
<path d="M0 0 C4.29 0 8.58 0 13 0 C13 0.99 13 1.98 13 3 C21.25 3 29.5 3 38 3 C38 3.33 38 3.66 38 4 C40.475 4.495 40.475 4.495 43 5 C43 5.33 43 5.66 43 6 C42.12674072 5.99476318 41.25348145 5.98952637 40.35375977 5.98413086 C37.12410727 5.96712249 33.89447755 5.95456631 30.66479492 5.94506836 C29.26504772 5.9400292 27.8653058 5.93319784 26.46557617 5.92456055 C24.45754223 5.9124768 22.44947043 5.90730193 20.44140625 5.90234375 C19.23170166 5.89710693 18.02199707 5.89187012 16.77563477 5.88647461 C14.09187983 5.68224715 14.09187983 5.68224715 13 7 C8.88195413 7.43435778 5.19491686 7.58288627 1.4375 5.75 C0 4 0 4 0 0 Z " fill="#040201" transform="translate(118,199)"/>
<path d="M0 0 C4.49971103 2.45617415 8.34687163 5.04061488 10 10 C9.34 10 8.68 10 8 10 C7.67 10.99 7.34 11.98 7 13 C5.35 13.33 3.7 13.66 2 14 C1.566875 13.195625 1.13375 12.39125 0.6875 11.5625 C-0.80474002 8.72153646 -0.80474002 8.72153646 -4 8 C-4.33 6.02 -4.66 4.04 -5 2 C-9.23429756 3.31061591 -13.07407404 4.94356259 -17 7 C-13.82712135 -0.66779007 -7.55414679 -1.45389366 0 0 Z " fill="#DC6B0D" transform="translate(393,171)"/>
<path d="M0 0 C2.1875 0.3125 2.1875 0.3125 4 1 C3.814375 1.61875 3.62875 2.2375 3.4375 2.875 C2.81347512 7.3323206 3.43896305 11.55486111 4 16 C5.32 16.33 6.64 16.66 8 17 C7.67 18.32 7.34 19.64 7 21 C5.35 21.33 3.7 21.66 2 22 C1.67 21.01 1.34 20.02 1 19 C0.01 19 -0.98 19 -2 19 C-3.96790727 13.5593152 -4.63431143 8.65976309 -3 3 C-1.5859375 1.21484375 -1.5859375 1.21484375 0 0 Z " fill="#F67105" transform="translate(436,188)"/>
<path d="M0 0 C1.875 1.125 1.875 1.125 3 3 C3.1875 6.1875 3.1875 6.1875 3 9 C2.01 8.67 1.02 8.34 0 8 C0.66 8.66 1.32 9.32 2 10 C2.33 10.66 2.66 11.32 3 12 C-0.67996503 14.45331002 -2.65413172 14.39507893 -7 14 C-9.54014875 10.18977687 -9.58606955 7.46529184 -9 3 C-6.89283346 -0.74607384 -4.00604938 -0.50075617 0 0 Z " fill="#090502" transform="translate(450,191)"/>
<path d="M0 0 C2.1344408 1.88933755 3.00124538 3.68220635 3.6328125 6.4453125 C-0.76384721 9.49854841 -0.76384721 9.49854841 -3.4921875 9.2578125 C-5.3671875 8.4453125 -5.3671875 8.4453125 -8.3671875 6.4453125 C-8.3671875 5.7853125 -8.3671875 5.1253125 -8.3671875 4.4453125 C-10.0171875 4.4453125 -11.6671875 4.4453125 -13.3671875 4.4453125 C-12.0471875 4.1153125 -10.7271875 3.7853125 -9.3671875 3.4453125 C-9.6971875 2.4553125 -10.0271875 1.4653125 -10.3671875 0.4453125 C-10.0371875 -0.2146875 -9.7071875 -0.8746875 -9.3671875 -1.5546875 C-10.84836551 -1.27341329 -12.32711999 -0.97935018 -13.8046875 -0.6796875 C-14.62839844 -0.51726562 -15.45210937 -0.35484375 -16.30078125 -0.1875 C-16.98269531 0.02132812 -17.66460937 0.23015625 -18.3671875 0.4453125 C-18.6971875 1.1053125 -19.0271875 1.7653125 -19.3671875 2.4453125 C-20.3571875 2.4453125 -21.3471875 2.4453125 -22.3671875 2.4453125 C-22.3671875 1.7853125 -22.3671875 1.1253125 -22.3671875 0.4453125 C-15.59028541 -5.60549294 -7.15130279 -4.90775682 0 0 Z " fill="#F57106" transform="translate(228.3671875,174.5546875)"/>
<path d="M0 0 C1.25 2.125 1.25 2.125 2 4 C-2.45894682 7.75490259 -5.64044175 8.56962265 -11.45703125 8.33203125 C-15.3677011 7.82142152 -18.43160154 6.68687927 -22 5 C-22.33 4.34 -22.66 3.68 -23 3 C-19.97580475 3.58803797 -16.98241547 4.22678118 -14 5 C-14 3.35 -14 1.7 -14 0 C-12.42074025 -0.39180108 -10.83631206 -0.76280736 -9.25 -1.125 C-8.36828125 -1.33382812 -7.4865625 -1.54265625 -6.578125 -1.7578125 C-3.63294504 -2.03448092 -2.42324683 -1.64434606 0 0 Z " fill="#DA6C0F" transform="translate(520,206)"/>
<path d="M0 0 C8.25 0 16.5 0 25 0 C25 1.65 25 3.3 25 5 C20.71 5 16.42 5 12 5 C12 5.66 12 6.32 12 7 C7.50003317 7.44117322 5.65388883 7.52867608 2.0625 4.625 C0 2 0 2 0 0 Z " fill="#030101" transform="translate(106,190)"/>
<path d="M0 0 C3.3 0 6.6 0 10 0 C10 0.33 10 0.66 10 1 C7.03 1 4.06 1 1 1 C1 3.31 1 5.62 1 8 C0.34 8 -0.32 8 -1 8 C-1 9.98 -1 11.96 -1 14 C-0.34 14.33 0.32 14.66 1 15 C1.33 20.94 1.66 26.88 2 33 C2.66 33.33 3.32 33.66 4 34 C4 34.99 4 35.98 4 37 C5.0725 36.62875 6.145 36.2575 7.25 35.875 C11 35 11 35 13.4375 35.875 C13.953125 36.24625 14.46875 36.6175 15 37 C15 35.35 15 33.7 15 32 C13.02 31.67 11.04 31.34 9 31 C9 26.05 9 21.1 9 16 C9.33 16 9.66 16 10 16 C10 20.62 10 25.24 10 30 C12.31 30 14.62 30 17 30 C17 32.64 17 35.28 17 38 C14.32296769 38.8923441 12.40616916 39.25160342 9.625 39.375 C8.87476563 39.42398438 8.12453125 39.47296875 7.3515625 39.5234375 C3.59526915 38.68731905 2.24698712 37.08124504 0 34 C-0.58903119 30.86676229 -0.47531804 27.86119938 -0.3125 24.6875 C-0.28994141 23.85154297 -0.26738281 23.01558594 -0.24414062 22.15429688 C-0.1855061 20.10208851 -0.09583215 18.05080798 0 16 C-1.32 16 -2.64 16 -4 16 C-4 13.36 -4 10.72 -4 8 C-2.68 7.67 -1.36 7.34 0 7 C0 4.69 0 2.38 0 0 Z " fill="#B96A24" transform="translate(336,175)"/>
<path d="M0 0 C0.33 0 0.66 0 1 0 C1 2.97 1 5.94 1 9 C1.66 9 2.32 9 3 9 C3.61875 9.721875 4.2375 10.44375 4.875 11.1875 C8.85942053 15.42624524 14.67395463 17.0037948 20 19 C19.125 23.875 19.125 23.875 18 25 C14.625 25.3125 14.625 25.3125 11 25 C9.25 23.125 9.25 23.125 8 21 C7.01 20.34 6.02 19.68 5 19 C0.33854012 12.90727497 -0.70780088 7.53414711 0 0 Z " fill="#110A06" transform="translate(203,180)"/>
<path d="M0 0 C9.96651077 -0.78545181 9.96651077 -0.78545181 14.125 2.375 C16 5 16 5 17 7 C16.59149607 9.2224899 16.10043112 11.43024103 15.5625 13.625 C15.13130859 15.40777344 15.13130859 15.40777344 14.69140625 17.2265625 C14.46324219 18.14179688 14.23507812 19.05703125 14 20 C13.34 20 12.68 20 12 20 C10.02 14.39 8.04 8.78 6 3 C3.69 2.67 1.38 2.34 -1 2 C-0.67 1.34 -0.34 0.68 0 0 Z " fill="#040201" transform="translate(261,180)"/>
<path d="M0 0 C3.3 0 6.6 0 10 0 C10 10.23 10 20.46 10 31 C6.7 31 3.4 31 0 31 C0 20.77 0 10.54 0 0 Z M2 1 C2 10.24 2 19.48 2 29 C3.98 29 5.96 29 8 29 C8.82038591 22.598406 9.12754513 16.38697499 9.0625 9.9375 C9.05798828 9.07189453 9.05347656 8.20628906 9.04882812 7.31445312 C9.03719913 5.20960461 9.01927073 3.10479242 9 1 C6.69 1 4.38 1 2 1 Z " fill="#BC6720" transform="translate(293,183)"/>
<path d="M0 0 C0.99 0 1.98 0 3 0 C3.8931507 6.58183362 3.95494281 12.42150508 3 19 C4.32 19 5.64 19 7 19 C7 19.99 7 20.98 7 22 C-3.56 22 -14.12 22 -25 22 C-25 21.01 -25 20.02 -25 19 C-16.75 19 -8.5 19 0 19 C0 12.73 0 6.46 0 0 Z " fill="#DC813E" transform="translate(132,168)"/>
<path d="M0 0 C0.33 0 0.66 0 1 0 C0.98259766 0.85271484 0.98259766 0.85271484 0.96484375 1.72265625 C0.90776806 6.60670484 1.18043228 11.18503965 2 16 C2.99 16 3.98 16 5 16 C5.33 16.66 5.66 17.32 6 18 C7.65 17.67 9.3 17.34 11 17 C11.33 16.01 11.66 15.02 12 14 C14.06640625 13.26953125 14.06640625 13.26953125 16.5625 12.8125 C17.38878906 12.65394531 18.21507812 12.49539062 19.06640625 12.33203125 C19.70449219 12.22246094 20.34257812 12.11289063 21 12 C21 9.36 21 6.72 21 4 C21.66 4.33 22.32 4.66 23 5 C23.62599243 8.38035912 24 11.56169885 24 15 C20.37 15.33 16.74 15.66 13 16 C13 16.99 13 17.98 13 19 C12.34 19 11.68 19 11 19 C11.33 19.66 11.66 20.32 12 21 C13.89533342 21.46523063 13.89533342 21.46523063 16.0625 21.625 C17.361875 21.74875 18.66125 21.8725 20 22 C20 22.33 20 22.66 20 23 C14.33239998 23.41053038 9.3883613 23.66685385 4.54296875 20.38671875 C1.52378495 17.67327508 -0.61675807 14.83413177 -2 11 C-2.18709273 7.08976201 -1.75837478 3.51674956 0 0 Z " fill="#C76817" transform="translate(432,191)"/>
<path d="M0 0 C1.3921875 0.8353125 1.3921875 0.8353125 2.8125 1.6875 C7.70065527 4.49366321 12.84832478 6.72692811 18 9 C18.042721 10.66611905 18.04063832 12.33382885 18 14 C17 15 17 15 13.625 15.3125 C10 15 10 15 8.25 13.0625 C7.8375 12.381875 7.425 11.70125 7 11 C6.01 10.67 5.02 10.34 4 10 C2.83203125 8.4765625 2.83203125 8.4765625 1.8125 6.625 C1.46832031 6.01914063 1.12414062 5.41328125 0.76953125 4.7890625 C0 3 0 3 0 0 Z " fill="#050301" transform="translate(375,190)"/>
<path d="M0 0 C0.33 0 0.66 0 1 0 C1 1.65 1 3.3 1 5 C2.98 5.66 4.96 6.32 7 7 C7.33 8.65 7.66 10.3 8 12 C4.78548731 13.60725635 1.56387464 13.05748185 -2 13 C-2.33 11.35 -2.66 9.7 -3 8 C-3.66 8 -4.32 8 -5 8 C-3.87751513 4.6325454 -2.30665226 2.66706668 0 0 Z " fill="#F67104" transform="translate(418,200)"/>
<path d="M0 0 C3.3 0 6.6 0 10 0 C10 2.97 10 5.94 10 9 C6.7 9 3.4 9 0 9 C0 6.03 0 3.06 0 0 Z " fill="#D06C18" transform="translate(293,171)"/>
<path d="M0 0 C0.33 0.66 0.66 1.32 1 2 C1.99 1.34 2.98 0.68 4 0 C6.1875 0.375 6.1875 0.375 8 1 C7.835 1.7425 7.67 2.485 7.5 3.25 C6.88074304 6.19006578 6.88074304 6.19006578 7 10 C6.34 10.66 5.68 11.32 5 12 C2 11.9375 2 11.9375 -1 11 C-2.5625 8.8125 -2.5625 8.8125 -3 6 C-1.625 2.6875 -1.625 2.6875 0 0 Z " fill="#C68841" transform="translate(158,208)"/>
<path d="M0 0 C0 0.66 0 1.32 0 2 C0.66 2.33 1.32 2.66 2 3 C-3.22468764 7.39973696 -7.30713088 7.47617251 -14 7 C-14.33 6.01 -14.66 5.02 -15 4 C-14.34 4 -13.68 4 -13 4 C-13 3.01 -13 2.02 -13 1 C-8.20862412 -0.6290678 -4.94367454 -1.20577428 0 0 Z " fill="#ED6F08" transform="translate(458,206)"/>
<path d="M0 0 C1.23556641 0.01740234 1.23556641 0.01740234 2.49609375 0.03515625 C3.32238281 0.04417969 4.14867187 0.05320313 5 0.0625 C5.63808594 0.07410156 6.27617187 0.08570313 6.93359375 0.09765625 C7.59359375 2.07765625 8.25359375 4.05765625 8.93359375 6.09765625 C7.94359375 6.59265625 7.94359375 6.59265625 6.93359375 7.09765625 C6.93359375 5.44765625 6.93359375 3.79765625 6.93359375 2.09765625 C4.29359375 2.09765625 1.65359375 2.09765625 -1.06640625 2.09765625 C-1.06640625 11.66765625 -1.06640625 21.23765625 -1.06640625 31.09765625 C1.57359375 31.09765625 4.21359375 31.09765625 6.93359375 31.09765625 C6.93359375 26.47765625 6.93359375 21.85765625 6.93359375 17.09765625 C7.26359375 17.09765625 7.59359375 17.09765625 7.93359375 17.09765625 C7.93359375 22.04765625 7.93359375 26.99765625 7.93359375 32.09765625 C4.63359375 32.09765625 1.33359375 32.09765625 -2.06640625 32.09765625 C-2.23367314 27.70130578 -2.39426718 23.30477864 -2.54858398 18.90795898 C-2.60207059 17.41114687 -2.65740495 15.91439962 -2.71459961 14.41772461 C-2.79632581 12.27081293 -2.87148085 10.12375832 -2.9453125 7.9765625 C-2.99244385 6.68306885 -3.0395752 5.3895752 -3.08813477 4.05688477 C-3.0594082 0.14458451 -3.0594082 0.14458451 0 0 Z " fill="#AA5E19" transform="translate(470.06640625,181.90234375)"/>
<path d="M0 0 C12.86507325 3.72629144 12.86507325 3.72629144 18 9 C19.17673198 11.35346396 19.16623866 12.8806033 19.1875 15.5 C19.20167969 16.2940625 19.21585938 17.088125 19.23046875 17.90625 C19 20 19 20 17 22 C17 18.04 17 14.08 17 10 C13.0285831 10.62841973 13.0285831 10.62841973 11 13 C9 11 9 11 8.125 8.5 C7.21791378 5.8604924 7.21791378 5.8604924 4.875 4.6875 C4.25625 4.460625 3.6375 4.23375 3 4 C3 3.34 3 2.68 3 2 C2.01 2 1.02 2 0 2 C0 1.34 0 0.68 0 0 Z " fill="#D56A0F" transform="translate(214,186)"/>
<path d="M0 0 C1.98 0 3.96 0 6 0 C8.32590854 3.63423209 8.16265833 6.77088331 8 11 C7.34 11 6.68 11 6 11 C5.34 11.66 4.68 12.32 4 13 C1.8206856 11.24135754 1.06313581 10.30604 0.48828125 7.51953125 C0.43027344 6.62621094 0.37226563 5.73289063 0.3125 4.8125 C0.24675781 3.91144531 0.18101562 3.01039063 0.11328125 2.08203125 C0.07589844 1.39496094 0.03851563 0.70789063 0 0 Z " fill="#F37206" transform="translate(239,184)"/>
<path d="M0 0 C0.66 0 1.32 0 2 0 C1.71517632 1.41805831 1.42181856 2.83440379 1.125 4.25 C0.96257812 5.03890625 0.80015625 5.8278125 0.6328125 6.640625 C0 9 0 9 -2 13 C-6.95 13 -11.9 13 -17 13 C-17.33 12.34 -17.66 11.68 -18 11 C-13.38 11 -8.76 11 -4 11 C-3.67 8.03 -3.34 5.06 -3 2 C-2.01 2 -1.02 2 0 2 C0 1.34 0 0.68 0 0 Z " fill="#DD9742" transform="translate(173,188)"/>
<path d="M0 0 C7.92 0 15.84 0 24 0 C24 0.33 24 0.66 24 1 C26.475 1.495 26.475 1.495 29 2 C29 2.33 29 2.66 29 3 C24.91672643 3.0580772 20.83355917 3.09362249 16.75 3.125 C15.01169922 3.15013672 15.01169922 3.15013672 13.23828125 3.17578125 C12.12324219 3.18222656 11.00820312 3.18867188 9.859375 3.1953125 C8.83295898 3.20578613 7.80654297 3.21625977 6.74902344 3.22705078 C3.98015712 2.99836111 2.35581208 2.4243299 0 1 C0 0.67 0 0.34 0 0 Z " fill="#190E08" transform="translate(132,202)"/>
<path d="M0 0 C0.33 0 0.66 0 1 0 C1 4.62 1 9.24 1 14 C3.31 14 5.62 14 8 14 C8 16.64 8 19.28 8 22 C5.11788698 22.96070434 3.30149956 23.10581883 0.3125 23.0625 C-0.89986328 23.04896484 -0.89986328 23.04896484 -2.13671875 23.03515625 C-2.75160156 23.02355469 -3.36648438 23.01195312 -4 23 C-4 22.34 -4 21.68 -4 21 C1.41538462 18.78461538 1.41538462 18.78461538 4.375 19.875 C4.91125 20.24625 5.4475 20.6175 6 21 C6 19.35 6 17.7 6 16 C3.03 15.505 3.03 15.505 0 15 C0 10.05 0 5.1 0 0 Z " fill="#C46615" transform="translate(345,191)"/>
<path d="M0 0 C0.33 0 0.66 0 1 0 C1 2.31 1 4.62 1 7 C2.65 7 4.3 7 6 7 C6 12.94 6 18.88 6 25 C6.66 25 7.32 25 8 25 C8.33 26.65 8.66 28.3 9 30 C5.125 28.25 5.125 28.25 4 26 C3.92805131 23.11629667 3.90708292 20.25760336 3.9375 17.375 C3.94201172 16.57320312 3.94652344 15.77140625 3.95117188 14.9453125 C3.96296832 12.96350994 3.98090395 10.98174567 4 9 C2.68 8.67 1.36 8.34 0 8 C0 5.36 0 2.72 0 0 Z " fill="#B86926" transform="translate(407,183)"/>
<path d="M0 0 C0.33 0 0.66 0 1 0 C1 1.65 1 3.3 1 5 C-7.25 5 -15.5 5 -24 5 C-24.33 5.99 -24.66 6.98 -25 8 C-25.33 7.34 -25.66 6.68 -26 6 C-25 4 -25 4 -23.2578125 3.40234375 C-22.20207031 3.17224609 -22.20207031 3.17224609 -21.125 2.9375 C-18.67254759 2.38999679 -16.39288361 1.79762787 -14 1 C-11.58988749 1.4012178 -9.19394501 1.89129702 -6.8125 2.4375 C-5.54019531 2.72496094 -4.26789063 3.01242188 -2.95703125 3.30859375 C-1.49330078 3.65083984 -1.49330078 3.65083984 0 4 C0 2.68 0 1.36 0 0 Z " fill="#8B482E" transform="translate(131,182)"/>
<path d="M0 0 C0.99 0 1.98 0 3 0 C3.33 2.97 3.66 5.94 4 9 C1.36 9 -1.28 9 -4 9 C-4 7.02 -4 5.04 -4 3 C-3.01 2.67 -2.02 2.34 -1 2 C-0.67 1.34 -0.34 0.68 0 0 Z " fill="#F47205" transform="translate(520,192)"/>
<path d="M0 0 C3.29164829 -0.02895225 6.58326399 -0.0467823 9.875 -0.0625 C10.81214844 -0.07087891 11.74929687 -0.07925781 12.71484375 -0.08789062 C14.05869141 -0.09272461 14.05869141 -0.09272461 15.4296875 -0.09765625 C16.67081299 -0.10551147 16.67081299 -0.10551147 17.93701172 -0.11352539 C20 0 20 0 22 1 C22 3.97 22 6.94 22 10 C21.67 9.01 21.34 8.02 21 7 C16.05 7 11.1 7 6 7 C6 6.67 6 6.34 6 6 C10.29 6 14.58 6 19 6 C19 4.35 19 2.7 19 1 C12.73 1 6.46 1 0 1 C0 0.67 0 0.34 0 0 Z " fill="#AD5A34" transform="translate(112,189)"/>
<path d="M0 0 C0.33 1.65 0.66 3.3 1 5 C-1.97 5 -4.94 5 -8 5 C-8.33 5.66 -8.66 6.32 -9 7 C-9.66 6.67 -10.32 6.34 -11 6 C-8.929767 -0.21069899 -6.33724765 -0.35871213 0 0 Z " fill="#F57207" transform="translate(511,196)"/>
<path d="M0 0 C1.32 0.33 2.64 0.66 4 1 C2.68 4.63 1.36 8.26 0 12 C-0.99 11.67 -1.98 11.34 -3 11 C-3 11.66 -3 12.32 -3 13 C-3.66 13 -4.32 13 -5 13 C-4.32116957 9.88452559 -3.25893098 7.14862279 -1.9375 4.25 C-1.57527344 3.45078125 -1.21304688 2.6515625 -0.83984375 1.828125 C-0.56269531 1.22484375 -0.28554687 0.6215625 0 0 Z " fill="#C69243" transform="translate(176,177)"/>
<path d="M0 0 C0 3.3 0 6.6 0 10 C-1.65 10 -3.3 10 -5 10 C-4.01 9.67 -3.02 9.34 -2 9 C-2 6.69 -2 4.38 -2 2 C-2.55429687 2.22816406 -3.10859375 2.45632812 -3.6796875 2.69140625 C-4.40414063 2.97886719 -5.12859375 3.26632813 -5.875 3.5625 C-6.95394531 3.99755859 -6.95394531 3.99755859 -8.0546875 4.44140625 C-10 5 -10 5 -12 4 C-8.41084094 -0.78554541 -5.58334594 -0.37222306 0 0 Z " fill="#A95D18" transform="translate(491,182)"/>
<path d="M0 0 C0.99 0.495 0.99 0.495 2 1 C2.33 1.99 2.66 2.98 3 4 C3.66 4.33 4.32 4.66 5 5 C5.62669199 7.16467461 6.15427374 9.35864524 6.625 11.5625 C6.88539063 12.76003906 7.14578125 13.95757812 7.4140625 15.19140625 C7.60742188 16.11824219 7.80078125 17.04507813 8 18 C10.64 18.33 13.28 18.66 16 19 C16 19.33 16 19.66 16 20 C13.03 20 10.06 20 7 20 C3.88666 13.45125035 1.73609048 7.03642732 0 0 Z " fill="#B36420" transform="translate(240,194)"/>
<path d="M0 0 C7.59 0 15.18 0 23 0 C19.2632157 2.49118953 17.25548181 2.2065226 12.8125 2.125 C11.54019531 2.10695312 10.26789063 2.08890625 8.95703125 2.0703125 C7.49330078 2.03550781 7.49330078 2.03550781 6 2 C5.67 2.66 5.34 3.32 5 4 C2.525 3.01 2.525 3.01 0 2 C0 1.34 0 0.68 0 0 Z " fill="#EB6F38" transform="translate(133,206)"/>
<path d="M0 0 C2.97 0 5.94 0 9 0 C9.66 2.31 10.32 4.62 11 7 C9 6 9 6 8 3 C5.03 2.505 5.03 2.505 2 2 C2.33 5.3 2.66 8.6 3 12 C-0.67952474 7.09396701 -0.29124516 5.82490317 0 0 Z " fill="#AB6121" transform="translate(237,182)"/>
<path d="M0 0 C4.95 0 9.9 0 15 0 C15 0.99 15 1.98 15 3 C10.05 3 5.1 3 0 3 C0 2.01 0 1.02 0 0 Z " fill="#CC7445" transform="translate(113,178)"/>
<path d="M0 0 C1.45599609 0.00773438 1.45599609 0.00773438 2.94140625 0.015625 C3.90949219 0.01046875 4.87757813 0.0053125 5.875 0 C8.50390625 0.265625 8.50390625 0.265625 11.50390625 2.265625 C11.17390625 3.915625 10.84390625 5.565625 10.50390625 7.265625 C10.17390625 7.265625 9.84390625 7.265625 9.50390625 7.265625 C9.50390625 5.615625 9.50390625 3.965625 9.50390625 2.265625 C7.92022878 2.40767241 6.33697307 2.55442653 4.75390625 2.703125 C3.8721875 2.78433594 2.99046875 2.86554688 2.08203125 2.94921875 C-0.18959827 3.22800965 -2.29461198 3.65353077 -4.49609375 4.265625 C-4.49609375 4.925625 -4.49609375 5.585625 -4.49609375 6.265625 C-5.15609375 6.265625 -5.81609375 6.265625 -6.49609375 6.265625 C-3.75880096 0.3999976 -3.75880096 0.3999976 0 0 Z " fill="#B16623" transform="translate(317.49609375,170.734375)"/>
<path d="M0 0 C0.66 1.32 1.32 2.64 2 4 C-1 6 -1 6 -5 6 C-5.33 5.34 -5.66 4.68 -6 4 C-6.99 3.67 -7.98 3.34 -9 3 C-9 2.34 -9 1.68 -9 1 C-6.04335481 -0.4783226 -3.25770263 -0.06032783 0 0 Z " fill="#EF7007" transform="translate(519,207)"/>
<path d="M0 0 C1.2375 0.99 1.2375 0.99 2.5 2 C1.84 2.66 1.18 3.32 0.5 4 C0.17 3.34 -0.16 2.68 -0.5 2 C-5.08615943 0.16553623 -10.93427597 0.47809199 -15.5 2 C-15.83 2.66 -16.16 3.32 -16.5 4 C-17.49 4 -18.48 4 -19.5 4 C-19.5 3.34 -19.5 2.68 -19.5 2 C-14.14960465 -2.7771387 -6.12832789 -4.10975543 0 0 Z " fill="#A56023" transform="translate(225.5,173)"/>
<path d="M0 0 C0.33 0 0.66 0 1 0 C0.98259766 0.85271484 0.98259766 0.85271484 0.96484375 1.72265625 C0.90776806 6.60670484 1.18043228 11.18503965 2 16 C2.99 16 3.98 16 5 16 C5.33 17.32 5.66 18.64 6 20 C2.26335862 18.7989367 0.51914818 16.48384583 -1.3125 13.078125 C-2.72390142 8.81184345 -1.99149139 3.98298278 0 0 Z " fill="#AF6424" transform="translate(432,191)"/>
<path d="M0 0 C2.125 0.375 2.125 0.375 4 1 C3.25 5.75 3.25 5.75 1 8 C-1.125 7.625 -1.125 7.625 -3 7 C-2.25 2.25 -2.25 2.25 0 0 Z " fill="#161008" transform="translate(162,208)"/>
<path d="M0 0 C0 0.33 0 0.66 0 1 C-5.28 1 -10.56 1 -16 1 C-16 1.66 -16 2.32 -16 3 C-17.32 3 -18.64 3 -20 3 C-20 2.34 -20 1.68 -20 1 C-13.16590184 -2.41704908 -7.20287251 -3.60143626 0 0 Z " fill="#AF6523" transform="translate(518,184)"/>
<path d="M0 0 C3.3 0 6.6 0 10 0 C10 2.31 10 4.62 10 7 C9.67 7 9.34 7 9 7 C9 5.35 9 3.7 9 2 C6.69 2 4.38 2 2 2 C2 3.98 2 5.96 2 8 C0.35 8 -1.3 8 -3 8 C-2.01 7.67 -1.02 7.34 0 7 C0 4.69 0 2.38 0 0 Z " fill="#BC6E27" transform="translate(411,175)"/>
<path d="M0 0 C3.6875 -0.25 3.6875 -0.25 7 0 C7.66 1.32 8.32 2.64 9 4 C5.04 4 1.08 4 -3 4 C-2.01 2.68 -1.02 1.36 0 0 Z " fill="#2D1705" transform="translate(506,191)"/>
<path d="M0 0 C0.33 0.66 0.66 1.32 1 2 C0.27554687 2.02578125 -0.44890625 2.0515625 -1.1953125 2.078125 C-7.36218083 2.43991461 -11.22752713 3.00144165 -16 7 C-16 4 -16 4 -14.1875 1.8125 C-9.53603638 -0.8324499 -5.2340757 -0.32999426 0 0 Z " fill="#985828" transform="translate(393,171)"/>
<path d="M0 0 C1.32 0 2.64 0 4 0 C4.36923077 4.55384615 4.36923077 4.55384615 2.5 6.8125 C2.005 7.204375 1.51 7.59625 1 8 C0.01 7.67 -0.98 7.34 -2 7 C-2.125 4.625 -2.125 4.625 -2 2 C-1.34 1.34 -0.68 0.68 0 0 Z " fill="#411911" transform="translate(133,209)"/>
<path d="M0 0 C0 0.33 0 0.66 0 1 C-0.71027344 1.04898438 -1.42054688 1.09796875 -2.15234375 1.1484375 C-3.53099609 1.26058594 -3.53099609 1.26058594 -4.9375 1.375 C-5.85402344 1.44460937 -6.77054687 1.51421875 -7.71484375 1.5859375 C-8.84599609 1.79089844 -8.84599609 1.79089844 -10 2 C-10.33 2.66 -10.66 3.32 -11 4 C-10.34 4 -9.68 4 -9 4 C-9 4.66 -9 5.32 -9 6 C-10.11375 6.309375 -11.2275 6.61875 -12.375 6.9375 C-15.7945155 7.82326483 -15.7945155 7.82326483 -18 9 C-15.08057845 -0.55447053 -8.78814006 -0.55406838 0 0 Z " fill="#A95D1D" transform="translate(451,182)"/>
<path d="M0 0 C0.7425 0.0825 1.485 0.165 2.25 0.25 C2.25 1.24 2.25 2.23 2.25 3.25 C0.6 3.58 -1.05 3.91 -2.75 4.25 C-2.75 5.24 -2.75 6.23 -2.75 7.25 C-2.09 7.58 -1.43 7.91 -0.75 8.25 C-1.08 9.24 -1.41 10.23 -1.75 11.25 C-4.27588702 8.88707344 -5.63820837 7.58537489 -6.75 4.25 C-3.42692308 0.31153846 -3.42692308 0.31153846 0 0 Z " fill="#AC6426" transform="translate(208.75,199.75)"/>
<path d="M0 0 C1.98 0 3.96 0 6 0 C6 2.64 6 5.28 6 8 C3.47524538 9.26237731 1.68799534 9.09856404 -1.125 9.0625 C-2.03507812 9.05347656 -2.94515625 9.04445312 -3.8828125 9.03515625 C-4.58148438 9.02355469 -5.28015625 9.01195312 -6 9 C-6 8.67 -6 8.34 -6 8 C-2.7 7.67 0.6 7.34 4 7 C3.04065919 3.16263678 2.76390737 2.40339772 0 0 Z " fill="#AF5E15" transform="translate(422,205)"/>
<path d="M0 0 C6.6 0 13.2 0 20 0 C20 0.33 20 0.66 20 1 C14.72 1 9.44 1 4 1 C4 1.66 4 2.32 4 3 C5.65 3 7.3 3 9 3 C9 3.33 9 3.66 9 4 C6.69 4 4.38 4 2 4 C1.34 2.68 0.68 1.36 0 0 Z " fill="#241508" transform="translate(504,202)"/>
<path d="M0 0 C0.66 0 1.32 0 2 0 C3.04574631 3.13723892 3.06992517 5.28038753 3 8.5625 C2.81633753 12.43123651 2.81633753 12.43123651 4 16 C3.01 16 2.02 16 1 16 C-1.48063781 5.62642369 -1.48063781 5.62642369 0 0 Z " fill="#DB6C0F" transform="translate(439,188)"/>
<path d="M0 0 C1.4540625 0.0309375 1.4540625 0.0309375 2.9375 0.0625 C2.9375 1.7125 2.9375 3.3625 2.9375 5.0625 C0.9575 5.3925 -1.0225 5.7225 -3.0625 6.0625 C-3.44468767 4.40635343 -3.77645102 2.73792976 -4.0625 1.0625 C-3.0625 0.0625 -3.0625 0.0625 0 0 Z " fill="#F97003" transform="translate(216.0625,172.9375)"/>
<path d="M0 0 C0.66 0.66 1.32 1.32 2 2 C1.625 4.125 1.625 4.125 1 6 C-2.67410785 7.17571451 -6.16929183 7.07366746 -10 7 C-10.33 5.68 -10.66 4.36 -11 3 C-10.01 3.495 -10.01 3.495 -9 4 C-6.6670134 4.04022391 -4.33293334 4.04320247 -2 4 C-1.34 2.68 -0.68 1.36 0 0 Z " fill="#D16B15" transform="translate(223,200)"/>
<path d="M0 0 C0.99 0 1.98 0 3 0 C3 0.99 3 1.98 3 3 C4.32 3.33 5.64 3.66 7 4 C5 6 5 6 1.875 6.125 C0.451875 6.063125 0.451875 6.063125 -1 6 C-1.33 5.01 -1.66 4.02 -2 3 C-1.34 3 -0.68 3 0 3 C0 2.01 0 1.02 0 0 Z " fill="#F77103" transform="translate(445,207)"/>
<path d="M0 0 C0.99 0.33 1.98 0.66 3 1 C3 3.64 3 6.28 3 9 C5.97 9.33 8.94 9.66 12 10 C12 10.33 12 10.66 12 11 C9.03 11 6.06 11 3 11 C0.84694043 7.14243493 -0.39253254 4.44870215 0 0 Z " fill="#AE6019" transform="translate(266,203)"/>
<path d="M0 0 C1.23556641 0.01740234 1.23556641 0.01740234 2.49609375 0.03515625 C3.32238281 0.04417969 4.14867187 0.05320313 5 0.0625 C5.63808594 0.07410156 6.27617187 0.08570313 6.93359375 0.09765625 C7.59359375 2.07765625 8.25359375 4.05765625 8.93359375 6.09765625 C7.94359375 6.59265625 7.94359375 6.59265625 6.93359375 7.09765625 C6.93359375 5.44765625 6.93359375 3.79765625 6.93359375 2.09765625 C5.01546875 2.25234375 5.01546875 2.25234375 3.05859375 2.41015625 C2.33929688 2.46816406 1.62 2.52617187 0.87890625 2.5859375 C-1.46159841 2.97158661 -1.46159841 2.97158661 -3.06640625 6.09765625 C-3.10912725 4.4315372 -3.10704457 2.7638274 -3.06640625 1.09765625 C-2.06640625 0.09765625 -2.06640625 0.09765625 0 0 Z " fill="#A06125" transform="translate(470.06640625,181.90234375)"/>
<path d="M0 0 C3.3 0 6.6 0 10 0 C9.34 2.97 8.68 5.94 8 9 C6 6 6 6 6 4 C6.66 4 7.32 4 8 4 C8 3.34 8 2.68 8 2 C5.36 2 2.72 2 0 2 C0 1.34 0 0.68 0 0 Z " fill="#B4661D" transform="translate(279,182)"/>
<path d="M0 0 C-0.33 1.32 -0.66 2.64 -1 4 C-3.31 4 -5.62 4 -8 4 C-7.625 2.0625 -7.625 2.0625 -7 0 C-4.3333581 -1.33332095 -2.83319697 -0.67102033 0 0 Z " fill="#F57006" transform="translate(383,203)"/>
<path d="M0 0 C0.99 0.99 1.98 1.98 3 3 C2.375 4.9375 2.375 4.9375 1 7 C-1.875 8 -1.875 8 -5 8 C-7.375 6.0625 -7.375 6.0625 -9 4 C-7.35 4 -5.7 4 -4 4 C-4 4.66 -4 5.32 -4 6 C-2.68 6 -1.36 6 0 6 C0 4.02 0 2.04 0 0 Z " fill="#C46616" transform="translate(229,176)"/>
<path d="M0 0 C0.33 0.99 0.66 1.98 1 3 C-1.31 3.33 -3.62 3.66 -6 4 C-6 5.65 -6 7.3 -6 9 C-7.5625 7.75 -7.5625 7.75 -9 6 C-8.875 3.9375 -8.875 3.9375 -8 2 C-4.77208445 -0.1519437 -3.71599191 -0.20086443 0 0 Z " fill="#9E612A" transform="translate(382,200)"/>
<path d="M0 0 C2.64 0 5.28 0 8 0 C8.33 1.32 8.66 2.64 9 4 C10.65 3.34 12.3 2.68 14 2 C12.38405168 4.04119788 10.7143618 6.04072937 9 8 C8.34 8 7.68 8 7 8 C7 5.69 7 3.38 7 1 C4.69 1 2.38 1 0 1 C0 0.67 0 0.34 0 0 Z " fill="#EC6F09" transform="translate(469,184)"/>
<path d="M0 0 C0.33 0.99 0.66 1.98 1 3 C-0.093125 2.95875 -1.18625 2.9175 -2.3125 2.875 C-6.08892229 2.67925334 -6.08892229 2.67925334 -9 5 C-9.99 4.67 -10.98 4.34 -12 4 C-8.41084094 -0.78554541 -5.58334594 -0.37222306 0 0 Z " fill="#190D08" transform="translate(121,181)"/>
<path d="M0 0 C0.66 0.33 1.32 0.66 2 1 C2.22179212 4.25295114 2.28601103 6.42797793 0.8125 9.375 C-1 11 -1 11 -3.6875 11.25 C-4.450625 11.1675 -5.21375 11.085 -6 11 C-5.01 10.67 -4.02 10.34 -3 10 C-2.26676204 7.98491642 -2.26676204 7.98491642 -2 6 C-1.01 6 -0.02 6 1 6 C0.67 4.02 0.34 2.04 0 0 Z " fill="#CA9548" transform="translate(167,207)"/>
<path d="M0 0 C1.89801818 1.60601538 2.70735613 3.08089032 3.625 5.375 C2.635 4.715 1.645 4.055 0.625 3.375 C-2.11372955 2.91727937 -2.11372955 2.91727937 -5.0625 2.75 C-6.05636719 2.67523438 -7.05023438 2.60046875 -8.07421875 2.5234375 C-8.83347656 2.47445312 -9.59273438 2.42546875 -10.375 2.375 C-10.375 2.045 -10.375 1.715 -10.375 1.375 C-3.08528037 -0.81191589 -3.08528037 -0.81191589 0 0 Z " fill="#C0671C" transform="translate(518.375,204.625)"/>
<path d="M0 0 C4.81938524 -0.23509196 8.46298506 0.54815522 13 2 C13 2.33 13 2.66 13 3 C8.71 3 4.42 3 0 3 C0 2.01 0 1.02 0 0 Z " fill="#D7603A" transform="translate(118,196)"/>
<path d="M0 0 C2.97 0 5.94 0 9 0 C9.33 1.65 9.66 3.3 10 5 C9.34 4.67 8.68 4.34 8 4 C8 3.34 8 2.68 8 2 C3.545 2.495 3.545 2.495 -1 3 C-0.67 2.01 -0.34 1.02 0 0 Z " fill="#AE6324" transform="translate(258,182)"/>
<path d="M0 0 C1.17369141 0.16435547 1.17369141 0.16435547 2.37109375 0.33203125 C3.15613281 0.42871094 3.94117187 0.52539062 4.75 0.625 C6.80859375 1.14453125 6.80859375 1.14453125 8.80859375 3.14453125 C4.18859375 3.14453125 -0.43140625 3.14453125 -5.19140625 3.14453125 C-2.19140625 0.14453125 -2.19140625 0.14453125 0 0 Z " fill="#532E1D" transform="translate(117.19140625,182.85546875)"/>
<path d="M0 0 C0.33 0 0.66 0 1 0 C1.33 2.31 1.66 4.62 2 7 C0.35 7.33 -1.3 7.66 -3 8 C-3 9.98 -3 11.96 -3 14 C-3.33 14 -3.66 14 -4 14 C-4 11.36 -4 8.72 -4 6 C-2.68 5.67 -1.36 5.34 0 5 C0 3.35 0 1.7 0 0 Z " fill="#B46119" transform="translate(310,177)"/>
<path d="M0 0 C1.45792884 -0.05399736 2.91642712 -0.09279177 4.375 -0.125 C5.18710938 -0.14820313 5.99921875 -0.17140625 6.8359375 -0.1953125 C9 0 9 0 11 2 C7.37 2.33 3.74 2.66 0 3 C0 2.01 0 1.02 0 0 Z " fill="#DB523B" transform="translate(107,187)"/>
<path d="M0 0 C0.99 0 1.98 0 3 0 C3.33 3.3 3.66 6.6 4 10 C3.01 10 2.02 10 1 10 C0.67 6.7 0.34 3.4 0 0 Z " fill="#E25735" transform="translate(132,168)"/>
<path d="M0 0 C0 1.65 0 3.3 0 5 C0.66 5 1.32 5 2 5 C2 5.66 2 6.32 2 7 C-0.4375 6.25 -0.4375 6.25 -3 5 C-3.8125 2.875 -3.8125 2.875 -4 1 C-2 0 -2 0 0 0 Z " fill="#C56718" transform="translate(380,206)"/>
<path d="M0 0 C0.33 0 0.66 0 1 0 C1.31563182 5.26053037 0.66590937 8.44573816 -2 13 C-3.18771723 9.57056481 -2.80226223 7.62215325 -1.5625 4.25 C-1.27503906 3.45078125 -0.98757813 2.6515625 -0.69140625 1.828125 C-0.46324219 1.22484375 -0.23507812 0.6215625 0 0 Z " fill="#B56420" transform="translate(278,185)"/>
<path d="M0 0 C0.66 0.33 1.32 0.66 2 1 C1.67 2.98 1.34 4.96 1 7 C-0.32 6.67 -1.64 6.34 -3 6 C-3 4.68 -3 3.36 -3 2 C-2.01 1.34 -1.02 0.68 0 0 Z " fill="#E36F0E" transform="translate(211,206)"/>
<path d="M0 0 C0.66 0 1.32 0 2 0 C2 2.97 2 5.94 2 9 C1.01 9 0.02 9 -1 9 C-0.67 6.03 -0.34 3.06 0 0 Z " fill="#CE5E3C" transform="translate(133,178)"/>
<path d="M0 0 C2.97 0 5.94 0 9 0 C9 0.99 9 1.98 9 3 C2.84765625 2.4140625 2.84765625 2.4140625 1 2 C0.67 1.34 0.34 0.68 0 0 Z " fill="#E58540" transform="translate(124,196)"/>
<path d="M0 0 C2.64 0 5.28 0 8 0 C8.33 1.32 8.66 2.64 9 4 C6.03 3.01 3.06 2.02 0 1 C0 0.67 0 0.34 0 0 Z " fill="#B75F15" transform="translate(384,195)"/>
<path d="M0 0 C2 1.625 2 1.625 4 4 C4.25 7.25 4.25 7.25 4 10 C3.67 10 3.34 10 3 10 C3 8.35 3 6.7 3 5 C1.35 4.67 -0.3 4.34 -2 4 C-1.34 3.67 -0.68 3.34 0 3 C0 2.01 0 1.02 0 0 Z " fill="#C66515" transform="translate(520,187)"/>
<path d="M0 0 C0.66 0 1.32 0 2 0 C2.33 1.98 2.66 3.96 3 6 C2.01 5.67 1.02 5.34 0 5 C0 5.66 0 6.32 0 7 C-0.66 7 -1.32 7 -2 7 C-1.42415568 4.61435923 -0.77772405 2.33317216 0 0 Z " fill="#B28444" transform="translate(173,183)"/>
<path d="M0 0 C0.66 1.32 1.32 2.64 2 4 C-0.3125 4.625 -0.3125 4.625 -3 5 C-3.99 4.34 -4.98 3.68 -6 3 C-5.01 3 -4.02 3 -3 3 C-3 2.34 -3 1.68 -3 1 C-2.01 0.67 -1.02 0.34 0 0 Z " fill="#A07035" transform="translate(163,215)"/>
<path d="M0 0 C0.99 0 1.98 0 3 0 C3 0.66 3 1.32 3 2 C4.32 2.33 5.64 2.66 7 3 C4.36 3.33 1.72 3.66 -1 4 C-0.67 2.68 -0.34 1.36 0 0 Z " fill="#C34B3B" transform="translate(130,206)"/>
<path d="M0 0 C0.99 0.33 1.98 0.66 3 1 C4.1875 4.0625 4.1875 4.0625 5 7 C3.0625 6.3125 3.0625 6.3125 1 5 C0.25 2.375 0.25 2.375 0 0 Z " fill="#B9671F" transform="translate(376,187)"/>
</svg>
